<svg width="696" height="148" viewBox="0 0 696 148" fill="none" xmlns="http://www.w3.org/2000/svg">
<g clip-path="url(#clip0_175_904)">
<path d="M54.2057 24.1435V26.0944C44.8746 26.266 36.5618 31.865 36.5618 42.8916V92.1771C50.815 74.6171 64.9805 56.9713 79.3176 39.4971C86.0189 31.4379 84.8309 26.0925 75.4997 26.0925V24.1416H110.029V26.0906H107.399C97.1331 26.0906 86.5319 33.0494 80.252 40.9369L62.692 62.7382L60.4856 65.452L92.8061 115.672C107.483 138.408 121.9 145.532 149.472 145.532V147.399H124.276C96.3666 147.909 92.4648 148.162 76.2626 123.138L48.6067 80.2143L36.5618 94.807V108.295C36.5618 118.727 44.1957 124.835 54.2057 125.007V127.042H0V125.007C10.0101 124.839 17.644 118.731 17.644 108.295V42.8916C17.644 31.8632 9.33115 26.2641 0 26.0944V24.1435H54.2057Z" fill="#1D6583"/>
<path d="M238.528 125.298V127.249H191.193V125.298C201.457 125.128 204.172 118.002 199.843 109.349C194.129 97.9144 189.194 87.4809 184.094 76.9449H152.999L137.999 108.499L134.499 115.999C131.192 123.463 133.511 125.298 142.333 125.298V127.249H112.897V125.298C125.198 124.535 129.016 119.445 132.323 111.895C137.191 100.643 139.1 96.5472 147.926 76.9449H122.145L125.499 70.999H150.499C154.356 62.4251 156.917 54.3469 163.999 38.499C160.095 31.9655 158.197 26.6391 143.013 26.3015V24.4346H178.557L222.331 112.319C225.047 117.748 231.918 125.298 238.531 125.298H238.528ZM181.499 70.999C176.279 60.2522 173.662 55.9014 166.968 43.6346L155.499 70.999H181.499Z" fill="#1D6583"/>
<path d="M396.032 145.667V147.534H371.517C344.542 147.534 338.943 147.446 324.182 125.307C303.144 92.8153 282.193 60.3288 261.239 27.8367V108.342C261.239 118.774 268.873 124.882 278.883 125.054V127.005H241.813V125.054C251.824 124.886 259.457 118.778 259.457 108.342V42.9385C259.457 31.9101 251.145 26.3111 241.813 26.1413V24.1904H280.412L336.231 111.058V42.9385C336.231 31.9101 328.002 26.3111 318.671 26.1413V24.1904H355.658V26.1413C346.327 26.3129 338.098 31.912 338.098 42.9385V113.772L339.54 116.06C354.132 138.624 368.637 145.667 396.036 145.667H396.032Z" fill="#1D6583"/>
<path d="M455.278 43.1827C455.278 32.1543 446.881 26.5552 437.55 26.3855V24.4346H474.533V26.3855C465.202 26.5552 456.889 32.1561 456.889 43.1827V99.0857C456.889 120.549 438.99 127.249 420.411 127.249C396.491 127.249 376.471 121.057 376.471 93.7403V43.1827C376.471 32.1543 368.158 26.5552 358.827 26.3855V24.4346H413.033V26.3855C403.618 26.5552 395.305 32.1561 395.305 43.1827V97.5581C395.305 113.251 402.346 125.468 420.585 125.468C437.554 125.468 455.281 118.85 455.281 99.0838V43.1827H455.278Z" fill="#1D6583"/>
<path d="M495.83 127.249H478.187V125.298C488.197 125.126 495.83 118.936 495.83 108.501V43.0967C495.83 32.0683 487.518 26.4693 478.187 26.2995V24.3486H516.785L572.688 111.641V43.0967C572.688 32.0683 564.375 26.4693 555.044 26.2995V24.3486H592.113V26.2977C582.782 26.4674 574.469 32.0683 574.469 43.0949V108.499C574.469 118.934 582.103 125.126 592.113 125.296V127.247H561.66L497.612 27.9949V108.497C497.612 118.932 505.246 125.124 515.256 125.294V127.245H495.83V127.249Z" fill="#1D6583"/>
<path d="M598.285 82.9861V81.0352H635.696V82.9861H598.285Z" fill="#1D6583"/>
<path d="M678.356 43.0934V108.497C678.356 118.933 685.99 125.125 696 125.294V127.245H641.794V125.294C651.804 125.125 659.438 118.933 659.438 108.497V43.0934C659.438 32.1527 651.125 26.5536 641.794 26.382V24.4311H696V26.382C686.669 26.5517 678.356 32.1489 678.356 43.0934ZM660.54 18.4907H658.505L665.039 5.42748V0H679.29V5.42934L660.542 18.4926L660.54 18.4907Z" fill="#1D6583"/>
</g>
<defs>
<clipPath id="clip0_175_904">
<rect width="696" height="147.534" fill="white"/>
</clipPath>
</defs>
</svg>
